<svg width="20" height="13" viewBox="0 0 20 13" fill="none" xmlns="http://www.w3.org/2000/svg">
<path fill-rule="evenodd" clip-rule="evenodd" d="M6.35445 5.42857V7.6H9.95834C9.81309 8.53191 8.869 10.3324 6.35445 10.3324C4.18486 10.3324 2.41469 8.54095 2.41469 6.33333C2.41469 4.12571 4.18486 2.33429 6.35445 2.33429C7.58903 2.33429 8.41511 2.85905 8.88716 3.31143L10.6119 1.65571C9.50445 0.624286 8.07016 0 6.35445 0C2.84135 0 0 2.8319 0 6.33333C0 9.83476 2.84135 12.6667 6.35445 12.6667C10.0219 12.6667 12.4547 10.0971 12.4547 6.4781C12.4547 6.06191 12.4093 5.74524 12.3549 5.42857H6.35445Z" fill="#DADADA"/>
<path fill-rule="evenodd" clip-rule="evenodd" d="M19.9711 5.42867H18.1556V3.61914H16.34V5.42867H14.5245V7.23819H16.34V9.04771H18.1556V7.23819H19.9711" fill="#DADADA"/>
</svg>
